<svg xmlns="http://www.w3.org/2000/svg" width="800" height="600" viewBox="0 0 800 600"><defs><linearGradient id="g" x1="0" y1="0" x2="1" y2="1"><stop stop-color="#fff2d8"/><stop offset="1" stop-color="#f8fafc"/></linearGradient><filter id="s"><feDropShadow dx="0" dy="24" stdDeviation="20" flood-opacity=".18"/></filter></defs><rect width="800" height="600" rx="48" fill="url(#g)"/><g filter="url(#s)"><path d="M414 108h72c26 0 47 21 47 47v63c0 26-21 47-47 47h-72z" fill="#5b21b6"/><circle cx="411" cy="187" r="84" fill="#6d28d9"/><circle cx="411" cy="187" r="49" fill="#d8b4fe"/><rect x="372" y="246" width="78" height="186" rx="28" fill="#9ca3af"/><rect x="394" y="402" width="34" height="106" rx="17" fill="#7c3aed"/><path d="M296 496h242c17 0 31 14 31 31v8H265v-8c0-17 14-31 31-31z" fill="#374151"/><rect x="478" y="140" width="92" height="35" rx="17" fill="#fbbf24"/><path d="M341 172h140" stroke="#c4b5fd" stroke-width="12" stroke-linecap="round"/></g></svg>
