<svg xmlns="http://www.w3.org/2000/svg" width="800" height="600" viewBox="0 0 800 600"><defs><linearGradient id="g" x1="0" y1="0" x2="1" y2="1"><stop stop-color="#f4e7ff"/><stop offset="1" stop-color="#f8fafc"/></linearGradient><filter id="s"><feDropShadow dx="0" dy="24" stdDeviation="20" flood-opacity=".18"/></filter></defs><rect width="800" height="600" rx="48" fill="url(#g)"/><g filter="url(#s)"><rect x="194" y="102" width="412" height="292" rx="20" fill="#1f2937"/><rect x="212" y="120" width="376" height="256" rx="9" fill="#8b5cf6"/><circle cx="400" cy="248" r="45" fill="#fff" opacity=".9"/><path d="M400 207c-8 13-17 25-17 41 0 18 12 34 29 39-4 10-11 22-20 22-8 0-13-5-24-5s-17 5-25 5c-13 0-29-28-29-51 0-28 19-42 37-42 10 0 20 6 26 6 5 0 15-7 27-7 5 0 18 1 28 14-24 13-20 47 4 56-4 11-9 20-15 27" fill="#8b5cf6"/><path d="M150 410h500l-44 60H194z" fill="#d1d5db"/><path d="M150 410h500c0 18-15 33-33 33H183c-18 0-33-15-33-33z" fill="#eef2f7"/><rect x="353" y="416" width="94" height="7" rx="4" fill="#c4c9d1"/></g></svg>
