<svg xmlns="http://www.w3.org/2000/svg" viewBox="0 0 480 150" role="img" aria-labelledby="title desc">
  <title id="title">KapışKapış</title><desc id="desc">Altın ve beyaz KK monogramı, açık artırma çekici ve KapışKapış yazısı</desc>
  <defs>
    <linearGradient id="gold" x1="0" x2="1" y1="0" y2="1"><stop stop-color="#ffd54a"/><stop offset="1" stop-color="#f2a900"/></linearGradient>
    <filter id="shadow" x="-20%" y="-20%" width="140%" height="150%"><feDropShadow dx="0" dy="5" stdDeviation="5" flood-opacity=".35"/></filter>
  </defs>
  <g filter="url(#shadow)">
    <path fill="url(#gold)" d="M18 18h25v36l30-36h31L68 61l40 45H76L43 68v38H18z"/>
    <path fill="#fff" d="M87 18h25v34l27-34h30l-34 41 37 47h-31l-29-38v38H87z"/>
    <g transform="translate(95 4) rotate(-14)">
      <rect x="18" y="12" width="58" height="17" rx="5" fill="url(#gold)"/>
      <rect x="35" y="26" width="11" height="54" rx="5" fill="#f7bd20"/>
      <rect x="20" y="79" width="44" height="9" rx="4" fill="url(#gold)"/>
      <path d="M66 82l12-8M69 89l14 1M63 75l6-13" stroke="#ffd54a" stroke-width="4" stroke-linecap="round"/>
    </g>
  </g>
  <text x="185" y="74" font-family="Arial,Helvetica,sans-serif" font-size="46" font-weight="900" font-style="italic" letter-spacing="-2"><tspan fill="#fff">KAPIŞ</tspan><tspan fill="url(#gold)">KAPIŞ</tspan></text>
  <line x1="188" y1="94" x2="252" y2="94" stroke="#f2a900" stroke-width="3"/>
  <line x1="404" y1="94" x2="466" y2="94" stroke="#f2a900" stroke-width="3"/>
  <text x="329" y="101" text-anchor="middle" font-family="Arial,Helvetica,sans-serif" font-size="15" font-weight="800" letter-spacing="1"><tspan fill="#fff">TEKLİF VER, </tspan><tspan fill="#f2b600">KAZAN!</tspan></text>
</svg>
